REM DIRINDEX 1\2,1\3
REM DIRNAME cjc039,folder01,folder02
TITLE ""
FILE "0441-0480.mp3" MP3
  TRACK 01 AUDIO
    TITLE "0:"
    INDEX 01 00:00:00
  TRACK 02 AUDIO
    TITLE "2:cjc039_0441"
    INDEX 01 00:00:23
  TRACK 03 AUDIO
    TITLE "0:"
    INDEX 01 00:01:46
  TRACK 04 AUDIO
    TITLE "2:cjc039_0442"
    INDEX 01 00:02:20
  TRACK 05 AUDIO
    TITLE "0:"
    INDEX 01 00:03:31
  TRACK 06 AUDIO
    TITLE "2:cjc039_0443"
    INDEX 01 00:04:11
  TRACK 07 AUDIO
    TITLE "0:"
    INDEX 01 00:05:40
  TRACK 08 AUDIO
    TITLE "2:cjc039_0444"
    INDEX 01 00:06:22
  TRACK 09 AUDIO
    TITLE "0:"
    INDEX 01 00:07:62
  TRACK 10 AUDIO
    TITLE "2:cjc039_0445"
    INDEX 01 00:08:42
  TRACK 11 AUDIO
    TITLE "0:"
    INDEX 01 00:10:23
  TRACK 12 AUDIO
    TITLE "2:cjc039_0446"
    INDEX 01 00:11:01
  TRACK 13 AUDIO
    TITLE "0:"
    INDEX 01 00:12:26
  TRACK 14 AUDIO
    TITLE "2:cjc039_0447"
    INDEX 01 00:13:08
  TRACK 15 AUDIO
    TITLE "0:"
    INDEX 01 00:14:33
  TRACK 16 AUDIO
    TITLE "2:cjc039_0448"
    INDEX 01 00:15:13
  TRACK 17 AUDIO
    TITLE "0:"
    INDEX 01 00:16:42
  TRACK 18 AUDIO
    TITLE "2:cjc039_0449"
    INDEX 01 00:17:23
  TRACK 19 AUDIO
    TITLE "0:"
    INDEX 01 00:18:64
  TRACK 20 AUDIO
    TITLE "2:cjc039_0450"
    INDEX 01 00:19:40
  TRACK 21 AUDIO
    TITLE "0:"
    INDEX 01 00:20:67
  TRACK 22 AUDIO
    TITLE "2:cjc039_0451"
    INDEX 01 00:21:43
  TRACK 23 AUDIO
    TITLE "0:"
    INDEX 01 00:23:06
  TRACK 24 AUDIO
    TITLE "2:cjc039_0452"
    INDEX 01 00:23:61
  TRACK 25 AUDIO
    TITLE "0:"
    INDEX 01 00:24:67
  TRACK 26 AUDIO
    TITLE "2:cjc039_0453"
    INDEX 01 00:25:41
  TRACK 27 AUDIO
    TITLE "0:"
    INDEX 01 00:27:04
  TRACK 28 AUDIO
    TITLE "2:cjc039_0454"
    INDEX 01 00:27:55
  TRACK 29 AUDIO
    TITLE "0:"
    INDEX 01 00:29:05
  TRACK 30 AUDIO
    TITLE "2:cjc039_0455"
    INDEX 01 00:29:60
  TRACK 31 AUDIO
    TITLE "0:"
    INDEX 01 00:31:22
  TRACK 32 AUDIO
    TITLE "2:cjc039_0456"
    INDEX 01 00:31:71
  TRACK 33 AUDIO
    TITLE "0:"
    INDEX 01 00:32:72
  TRACK 34 AUDIO
    TITLE "2:cjc039_0457"
    INDEX 01 00:33:60
  TRACK 35 AUDIO
    TITLE "0:"
    INDEX 01 00:35:21
  TRACK 36 AUDIO
    TITLE "2:cjc039_0458"
    INDEX 01 00:36:01
  TRACK 37 AUDIO
    TITLE "0:"
    INDEX 01 00:37:34
  TRACK 38 AUDIO
    TITLE "2:cjc039_0459"
    INDEX 01 00:38:10
  TRACK 39 AUDIO
    TITLE "0:"
    INDEX 01 00:39:23
  TRACK 40 AUDIO
    TITLE "2:cjc039_0460"
    INDEX 01 00:40:05
  TRACK 41 AUDIO
    TITLE "0:"
    INDEX 01 00:41:36
  TRACK 42 AUDIO
    TITLE "2:cjc039_0461"
    INDEX 01 00:42:10
  TRACK 43 AUDIO
    TITLE "0:"
    INDEX 01 00:43:37
  TRACK 44 AUDIO
    TITLE "2:cjc039_0462"
    INDEX 01 00:44:12
  TRACK 45 AUDIO
    TITLE "0:"
    INDEX 01 00:45:24
  TRACK 46 AUDIO
    TITLE "2:cjc039_0463"
    INDEX 01 00:46:04
  TRACK 47 AUDIO
    TITLE "0:"
    INDEX 01 00:47:21
  TRACK 48 AUDIO
    TITLE "2:cjc039_0464"
    INDEX 01 00:47:74
  TRACK 49 AUDIO
    TITLE "0:"
    INDEX 01 00:49:41
  TRACK 50 AUDIO
    TITLE "2:cjc039_0465"
    INDEX 01 00:50:21
  TRACK 51 AUDIO
    TITLE "0:"
    INDEX 01 00:51:65
  TRACK 52 AUDIO
    TITLE "2:cjc039_0466"
    INDEX 01 00:52:36
  TRACK 53 AUDIO
    TITLE "0:"
    INDEX 01 00:53:55
  TRACK 54 AUDIO
    TITLE "2:cjc039_0467"
    INDEX 01 00:54:29
  TRACK 55 AUDIO
    TITLE "0:"
    INDEX 01 00:55:40
  TRACK 56 AUDIO
    TITLE "2:cjc039_0468"
    INDEX 01 00:56:18
  TRACK 57 AUDIO
    TITLE "0:"
    INDEX 01 00:57:50
  TRACK 58 AUDIO
    TITLE "2:cjc039_0469"
    INDEX 01 00:58:30
  TRACK 59 AUDIO
    TITLE "0:"
    INDEX 01 00:59:73
  TRACK 60 AUDIO
    TITLE "2:cjc039_0470"
    INDEX 01 01:00:49
  TRACK 61 AUDIO
    TITLE "0:"
    INDEX 01 01:02:03
  TRACK 62 AUDIO
    TITLE "2:cjc039_0471"
    INDEX 01 01:02:59
  TRACK 63 AUDIO
    TITLE "0:"
    INDEX 01 01:04:15
  TRACK 64 AUDIO
    TITLE "2:cjc039_0472"
    INDEX 01 01:04:72
  TRACK 65 AUDIO
    TITLE "0:"
    INDEX 01 01:06:42
  TRACK 66 AUDIO
    TITLE "2:cjc039_0473"
    INDEX 01 01:07:21
  TRACK 67 AUDIO
    TITLE "0:"
    INDEX 01 01:08:64
  TRACK 68 AUDIO
    TITLE "2:cjc039_0474"
    INDEX 01 01:09:40
  TRACK 69 AUDIO
    TITLE "0:"
    INDEX 01 01:10:61
  TRACK 70 AUDIO
    TITLE "2:cjc039_0475"
    INDEX 01 01:11:37
  TRACK 71 AUDIO
    TITLE "0:"
    INDEX 01 01:12:70
  TRACK 72 AUDIO
    TITLE "2:cjc039_0476"
    INDEX 01 01:13:38
  TRACK 73 AUDIO
    TITLE "0:"
    INDEX 01 01:15:03
  TRACK 74 AUDIO
    TITLE "2:cjc039_0477"
    INDEX 01 01:15:54
  TRACK 75 AUDIO
    TITLE "0:"
    INDEX 01 01:16:69
  TRACK 76 AUDIO
    TITLE "2:cjc039_0478"
    INDEX 01 01:17:45
  TRACK 77 AUDIO
    TITLE "0:"
    INDEX 01 01:19:19
  TRACK 78 AUDIO
    TITLE "2:cjc039_0479"
    INDEX 01 01:19:74
  TRACK 79 AUDIO
    TITLE "0:"
    INDEX 01 01:21:06
  TRACK 80 AUDIO
    TITLE "2:cjc039_0480"
    INDEX 01 01:21:59
  TRACK 81 AUDIO
    TITLE "0:"
    INDEX 01 01:23:07
